<svg xmlns="http://www.w3.org/2000/svg" width="100" height="100" viewBox="0 0 100 100">
  <metadata id="license"
    xmlns:rdf="http://www.w3.org/1999/02/22-rdf-syntax-ns#"
    xmlns:dc="http://purl.org/dc/elements/1.1/"
    xmlns:cc="http://creativecommons.org/ns#">
    <rdf:RDF>
      <cc:Work rdf:about="https://github.com/greasemonkey/greasemonkey/blob/master/skin/icon.svg">
        <dc:type rdf:resource="http://purl.org/dc/dcmitype/StillImage" />
        <dc:format>image/svg+xml</dc:format>
        <dc:date>2017-12-08</dc:date>
        <dc:creator>J.W (jakwings@gmail.com)</dc:creator>
        <dc:rights>https://github.com/greasemonkey/greasemonkey/blob/master/LICENSE.mit</dc:rights>
        <dc:source>https://github.com/greasemonkey/greasemonkey/blob/master/skin/icon32.png</dc:source>
        <cc:license rdf:resource="https://creativecommons.org/licenses/by-sa/4.0/legalcode" />
        <cc:attributionName rdf:resource="J.W" />
        <cc:attributionURL rdf:resource="https://github.com/jakwings" />
        <dc:description>This work is licensed under the MIT license or the Creative Commons license, at your option.</dc:description>
      </cc:Work>
    </rdf:RDF>
  </metadata>
  <path d="M82.463 32.9C89.2 26.893 98 30.278 98 43.565c0 4.827 1.043 13.53-10.37 20.453-1.601.97-5.506-4.182-6.212-8.66-.426-2.691-3.995-17.962 1.045-22.458z" fill-rule="evenodd" fill="url(#a)"/>
  <defs>
    <radialGradient id="a" gradientUnits="userSpaceOnUse" cx="50.007" cy="57.769" r="72.593" fx="50.002" fy="57.77">
      <stop offset="0" stop-color="#994d00"/>
      <stop offset=".508" stop-color="#994d00"/>
      <stop offset="1" stop-color="#824100"/>
    </radialGradient>
  </defs>
  <path d="M18.502 40.294c-8.09-9.884-15.665-2.329-16.3 4.983C.722 62.316 7.045 67.022 13.8 70.314c3.142 1.533 4.896-12.116 4.896-12.116l-.193-17.905z" fill-rule="evenodd" fill="url(#b)"/>
  <defs>
    <radialGradient id="b" gradientUnits="userSpaceOnUse" cx="50.007" cy="57.769" r="72.593" fx="50.002" fy="57.77">
      <stop offset="0" stop-color="#994d00"/>
      <stop offset=".508" stop-color="#994d00"/>
      <stop offset="1" stop-color="#824100"/>
    </radialGradient>
  </defs>
  <path d="M84.873 36.626c4.453-3.01 8.078-1.15 8.49 2.908.69 6.77.01 10.787-1.187 13.542-1.622 3.725-2.047 3.827-4.725 5.407-1.022.604-3.312-3.278-3.746-6.364-.264-1.856-2.391-13.096 1.168-15.493z" fill-rule="evenodd" fill="url(#c)"/>
  <defs>
    <radialGradient id="c" gradientUnits="userSpaceOnUse" cx="82.834" cy="50.708" r="18.95" fx="82.914" fy="50.693">
      <stop offset="0" stop-color="#b48942"/>
      <stop offset=".586" stop-color="#d2a04d"/>
      <stop offset="1" stop-color="#e6c786"/>
    </radialGradient>
  </defs>
  <path d="M14.538 42.839c-4.263-1.473-6.896 2.13-7.447 5.642a19.91 19.91 0 0 0 .7 9.11c1.351 4.284 4.196 8.176 5.553 7.895 2.78-.575 3.024-4.348 3.574-7.894.78-5.05-.508-14.11-2.38-14.753z" fill-rule="evenodd" fill="url(#d)"/>
  <defs>
    <radialGradient id="d" gradientUnits="userSpaceOnUse" cx="17.15" cy="57.733" r="18.387" fx="17.177" fy="57.718">
      <stop offset="0" stop-color="#b48942"/>
      <stop offset=".586" stop-color="#d2a04d"/>
      <stop offset="1" stop-color="#e6c786"/>
    </radialGradient>
  </defs>
  <path d="M15.169 37.666C18.744 27.15 30.124 16.088 72.797 2.755 69.44 10 66.66 19.46 66.66 19.46s7.112-2.632 14.788-4.34c-2.872 3.423-6.497 7.544-6.497 7.544s4.009.862 8.418 8.062c1.986 3.245 3.542 7.255 6.083 22.526 5.386 17.025 6.535 29.945-10.128 38.953-10.903 5.897-27.315 6.323-40.23 5.365-11.64-.863-19.665-3.68-24.218-9.967-4.412-6.088-5.811-15.007-2.347-27.885 0-9.583.133-14.678 2.64-22.052z" fill-rule="evenodd" fill="url(#e)"/>
  <defs>
    <radialGradient id="e" gradientUnits="userSpaceOnUse" cx="50.007" cy="57.769" r="72.593" fx="50.002" fy="57.77">
      <stop offset="0" stop-color="#994d00"/>
      <stop offset=".508" stop-color="#994d00"/>
      <stop offset="1" stop-color="#824100"/>
    </radialGradient>
  </defs>
  <path d="M48.897 40.214c7.913-20.11 24.467-15.511 30.062-2.33 1.367 3.22 2.965 7.46 3.403 17.852 3.949 5.528 5.456 16.07 3.57 21.589-2.673 7.827-9.607 10.83-15.353 12.21-12.41 2.978-25.138 3.952-37.001 1.25-6.219-1.418-15.432-3.262-16.766-14.275-.579-4.777-.035-13.338 2.398-16.935 0-7.23-.286-12.698 2.125-18.449 7.89-18.826 23.178-12.948 27.562-.912z" fill-rule="evenodd" fill="url(#f)"/>
  <defs>
    <radialGradient id="f" gradientUnits="userSpaceOnUse" cx="50.635" cy="64.627" r="52.473" fx="51.342" fy="71.612">
      <stop offset="0" stop-color="#f5daa5"/>
      <stop offset=".423" stop-color="#e7c581"/>
      <stop offset=".692" stop-color="#dcb169"/>
      <stop offset="1" stop-color="#c9a260"/>
    </radialGradient>
  </defs>
  <path d="M40.54 25.915C47.477 19.71 56.67 12.454 72.8 2.75c-3.36 7.25-4.654 11.207-6.135 16.713-8.857 2.596-13.126 4.9-26.126 6.451z" fill-rule="evenodd" fill="#773b00"/>
  <path d="M62.773 79.575c4.255-.94 9.324-2.46 11.848-5.529 1.623-1.973 2.9-4.764 3.192-7.16.211-1.74-.74-1.619-1.468-.198-2.403 4.686-4.662 5.98-7.305 7.04-3.812 1.527-12.75 2.64-16.739 2.95-3.987.309 3.988-.31 0 0-3.987.31-12.99.59-16.993-.332-2.775-.639-5.206-1.568-8.304-5.827-.939-1.291-1.897-1.264-1.42.422.659 2.322 2.351 4.883 4.26 6.582 2.966 2.642 8.21 3.362 12.56 3.633a73.703 73.703 0 0 0 20.369-1.581z" fill-rule="evenodd" fill="url(#g)"/>
  <defs>
    <radialGradient id="g" gradientUnits="userSpaceOnUse" cx="47.234" cy="38.803" r="51.16" fx="56.094" fy="37.996">
      <stop offset="0" stop-color="#ffb385"/>
      <stop offset="1" stop-color="#570503"/>
    </radialGradient>
  </defs>
  <path d="M52.017 54.583c-.246-5.203 2.593-9.567 6.342-9.746 3.748-.175 6.987 3.9 7.233 9.102.247 5.203-2.593 9.568-6.341 9.747-3.749.174-6.987-3.9-7.233-9.103z" fill-rule="evenodd" fill="url(#h)"/>
  <defs>
    <linearGradient id="h" gradientUnits="userSpaceOnUse" x1="52.002" y1="44.835" x2="58.806" y2="64.829">
      <stop offset="0" stop-color="#346732"/>
      <stop offset="1" stop-color="#021301"/>
    </linearGradient>
  </defs>
  <path d="M54.437 51.858c-.11-2.33.833-4.274 2.107-4.334 1.275-.06 2.398 1.782 2.508 4.116.11 2.33-.833 4.27-2.108 4.334-1.274.06-2.397-1.782-2.507-4.116z" fill-rule="evenodd" fill="url(#i)"/>
  <defs>
    <linearGradient id="i" gradientUnits="userSpaceOnUse" x1="59.084" y1="55.771" x2="54.186" y2="47.726">
      <stop offset="0" stop-color="#b7cbb7"/>
      <stop offset=".356" stop-color="#cfe6cf"/>
      <stop offset=".694" stop-color="#d7eed7"/>
      <stop offset="1" stop-color="#b7cbb7"/>
    </linearGradient>
  </defs>
  <path d="M34.013 56.322c-.247-5.203 2.592-9.567 6.341-9.747 3.749-.174 6.987 3.9 7.233 9.103.247 5.203-2.592 9.567-6.34 9.746-3.75.175-6.988-3.9-7.234-9.102z" fill-rule="evenodd" fill="url(#j)"/>
  <defs>
    <linearGradient id="j" gradientUnits="userSpaceOnUse" x1="33.997" y1="46.574" x2="40.801" y2="66.568">
      <stop offset="0" stop-color="#346732"/>
      <stop offset="1" stop-color="#021301"/>
    </linearGradient>
  </defs>
  <path d="M36.432 53.597c-.11-2.33.833-4.274 2.108-4.334 1.274-.06 2.397 1.782 2.507 4.116.11 2.33-.833 4.27-2.107 4.334-1.275.06-2.398-1.782-2.508-4.116z" fill-rule="evenodd" fill="url(#k)"/>
  <defs>
    <linearGradient id="k" gradientUnits="userSpaceOnUse" x1="41.079" y1="57.51" x2="36.181" y2="49.465">
      <stop offset="0" stop-color="#b7cbb7"/>
      <stop offset=".356" stop-color="#cfe6cf"/>
      <stop offset=".694" stop-color="#d7eed7"/>
      <stop offset="1" stop-color="#b7cbb7"/>
    </linearGradient>
  </defs>
</svg>
