/* XPM */ 
static const unsigned char * greasemonkey_xpm[] = {
"16 16 60 1",
" 	c None",
"!	c black",
"#	c #A45E0E",
"$	c #803F01",
"%	c #8B4400",
"&	c #B5762E",
"'	c #D79E5E",
"(	c #CD9354",
")	c #AE722F",
"*	c #98601D",
"+	c #EAAE6D",
",	c #EAAC6A",
"-	c #D89751",
".	c #836843",
"0	c #CA9148",
"1	c #A16A26",
"2	c #EAA660",
"3	c #E5A25C",
"4	c #E7A662",
"5	c #A67537",
"6	c #F6C085",
"7	c #BB8040",
"8	c #F0B06E",
"9	c #C6925D",
":	c #402F1D",
";	c #D5A16C",
"<	c #936328",
"=	c #F1B677",
">	c #976324",
"?	c #F8BE83",
"@	c #C69B6F",
"A	c #29211A",
"B	c #D7AC82",
"C	c #8B5C1F",
"D	c #BC884F",
"E	c #BE966D",
"F	c #E6BC93",
"G	c #EDC49B",
"H	c #885E28",
"I	c #EFBC88",
"J	c #B18F6F",
"K	c #957C64",
"L	c #94816D",
"M	c #8F642F",
"N	c #F3BF8D",
"O	c #F5C99C",
"P	c #F5D1AE",
"Q	c #F3D6BB",
"R	c #F3D9C2",
"S	c #E1AC75",
"T	c #F3C69A",
"U	c #EFC7A2",
"V	c #F1CFAE",
"W	c #F1D1B3",
"X	c #986C34",
"Y	c #F5C595",
"Z	c #F2C79D",
"[	c #7A6043",
"]	c #B8844A",
"^	c #C28E54",
"                ",
"                ",
"    #$%%%%$#    ",
"   #&'(##('&#   ",
" ))*++,--,++*)) ",
".01)23244232)10.",
"567)89:;;:98)765",
"<=(>?@ABBA@?>(=<",
" >CDEBFGGFBEDC> ",
"  HIJKLLLLKJIH  ",
"  MNOPQRRQPONM  ",
"  .STUVWWVUTS.  ",
"   XSYTZZTYSX   ",
"    [<]^^]<[    ",
"                ",
"                "};