/* XPM */
static char * greasemonkey_xpm[] = {
"16 16 90 1",
" 	c None",
".	c #CE8A8C",
"+	c #D69A9C",
"@	c #EFB2B5",
"#	c #EFBABD",
"$	c #F7C3C6",
"%	c #BD9A9C",
"&	c #6B595A",
"*	c #ADAAAD",
"=	c #A5A2A5",
"-	c #7B797B",
";	c #848284",
">	c #7B7D7B",
",	c #949694",
"'	c #848684",
")	c #ADAEAD",
"!	c #A5A6A5",
"~	c #BD5100",
"{	c #B54D00",
"]	c #AD4900",
"^	c #A54900",
"/	c #944100",
"(	c #C65D10",
"_	c #BD5910",
":	c #8C4918",
"<	c #8C5D39",
"[	c #BD4D00",
"}	c #A54500",
"|	c #9C4100",
"1	c #943C00",
"2	c #CE5D10",
"3	c #B55510",
"4	c #9C4D18",
"5	c #945121",
"6	c #8C4D21",
"7	c #BD6931",
"8	c #A56539",
"9	c #AD6D42",
"0	c #AD4908",
"a	c #A54D18",
"b	c #944918",
"c	c #A55521",
"d	c #9C5121",
"e	c #944D21",
"f	c #8C5531",
"g	c #B57952",
"h	c #8C6952",
"i	c #8C6D5A",
"j	c #943C08",
"k	c #9C4D21",
"l	c #B56131",
"m	c #9C5931",
"n	c #945531",
"o	c #A5755A",
"p	c #BD6131",
"q	c #945D42",
"r	c #BD6942",
"s	c #CE7952",
"t	c #A56142",
"u	c #C67552",
"v	c #D67D5A",
"w	c #CE7D5A",
"x	c #BD7152",
"y	c #CE795A",
"z	c #B56D52",
"A	c #C6755A",
"B	c #AD6952",
"C	c #945D4A",
"D	c #C6826B",
"E	c #948E8C",
"F	c #CE826B",
"G	c #CE7963",
"H	c #C67D6B",
"I	c #CE8673",
"J	c #CE8273",
"K	c #BD796B",
"L	c #DE9A8C",
"M	c #D68E84",
"N	c #DE968C",
"O	c #D6928C",
"P	c #8C7573",
"Q	c #846563",
"R	c #D68E8C",
"S	c #DE9E9C",
"T	c #CEA6A5",
"U	c #DEB6B5",
"V	c #E7A6A5",
"W	c #FFC7C6",
"X	c #FFCFCE",
"Y	c #000000",
"                ",
"     d/1/d      ",
"   n}]]}]]}n    ",
"  ixLMp]pMLxi   ",
" ot#XXVrVXX#to  ",
":^KXXXX.XXXXK^: ",
"}{DXXXX$XXXXD{} ",
"8}yXXYYXYYXXy}8 ",
" }(+XYYXYYX+(}  ",
"f2GVXXXXXXXVG2f ",
"8OXXXXXXXXXXXO8 ",
"e@TYTXXXXXTYT@e ",
"CIW&YYYYYYY&WIC ",
"QksSXXXXXXXSskQ ",
" Pb2vN@@@Nv2bP  ",
"  Eqa0[{[0aqE   "};
